<mxfile host="app.diagrams.net" modified="2021-05-23T12:10:41.393Z" agent="5.0 (Windows NT 10.0; Win64; x64) AppleWebKit/537.36 (KHTML, like Gecko) Chrome/90.0.4430.212 Safari/537.36" etag="qIAojyDZsgAiGwbjzeTN" version="14.6.13" type="github">
  <diagram id="RS7drY1Il1X1ErXMCM8U" name="4.1 E-R模型图">
    <mxGraphModel dx="1277" dy="588" grid="1" gridSize="10" guides="1" tooltips="1" connect="1" arrows="1" fold="1" page="1" pageScale="1" pageWidth="850" pageHeight="1100" math="0" shadow="0">
      <root>
        <mxCell id="0" />
        <mxCell id="1" parent="0" />
        <mxCell id="y-HTYOUWiwoaJM4Y_3pr-2" value="" style="whiteSpace=wrap;html=1;fillColor=none;" vertex="1" parent="1">
          <mxGeometry x="30" y="20" width="730" height="440" as="geometry" />
        </mxCell>
        <mxCell id="y-HTYOUWiwoaJM4Y_3pr-27" value="" style="edgeStyle=orthogonalEdgeStyle;rounded=0;orthogonalLoop=1;jettySize=auto;html=1;endArrow=none;endFill=0;" edge="1" parent="1" source="y-HTYOUWiwoaJM4Y_3pr-21" target="y-HTYOUWiwoaJM4Y_3pr-17">
          <mxGeometry relative="1" as="geometry" />
        </mxCell>
        <mxCell id="y-HTYOUWiwoaJM4Y_3pr-21" value="考试日期" style="ellipse;whiteSpace=wrap;html=1;align=center;fillColor=none;" vertex="1" parent="1">
          <mxGeometry x="40" y="320" width="100" height="40" as="geometry" />
        </mxCell>
        <mxCell id="y-HTYOUWiwoaJM4Y_3pr-17" value="监考" style="shape=rhombus;perimeter=rhombusPerimeter;whiteSpace=wrap;html=1;align=center;fillColor=none;" vertex="1" parent="1">
          <mxGeometry x="160" y="310" width="120" height="60" as="geometry" />
        </mxCell>
        <mxCell id="y-HTYOUWiwoaJM4Y_3pr-8" value="" style="edgeStyle=orthogonalEdgeStyle;rounded=0;orthogonalLoop=1;jettySize=auto;html=1;endArrow=none;endFill=0;" edge="1" parent="1" source="y-HTYOUWiwoaJM4Y_3pr-3" target="y-HTYOUWiwoaJM4Y_3pr-7">
          <mxGeometry relative="1" as="geometry" />
        </mxCell>
        <mxCell id="y-HTYOUWiwoaJM4Y_3pr-3" value="&lt;font style=&quot;font-size: 12px&quot;&gt;课程&lt;/font&gt;" style="whiteSpace=wrap;html=1;align=center;fillColor=none;" vertex="1" parent="1">
          <mxGeometry x="170" y="120" width="100" height="40" as="geometry" />
        </mxCell>
        <mxCell id="y-HTYOUWiwoaJM4Y_3pr-4" value="&lt;font style=&quot;font-size: 12px&quot;&gt;教师&lt;/font&gt;" style="whiteSpace=wrap;html=1;align=center;fillColor=none;" vertex="1" parent="1">
          <mxGeometry x="510" y="320" width="100" height="40" as="geometry" />
        </mxCell>
        <mxCell id="y-HTYOUWiwoaJM4Y_3pr-6" value="" style="edgeStyle=orthogonalEdgeStyle;rounded=0;orthogonalLoop=1;jettySize=auto;html=1;endArrow=none;endFill=0;" edge="1" parent="1" source="y-HTYOUWiwoaJM4Y_3pr-5" target="y-HTYOUWiwoaJM4Y_3pr-3">
          <mxGeometry relative="1" as="geometry" />
        </mxCell>
        <mxCell id="y-HTYOUWiwoaJM4Y_3pr-5" value="课程号" style="ellipse;whiteSpace=wrap;html=1;align=center;fontStyle=4;fillColor=none;" vertex="1" parent="1">
          <mxGeometry x="50" y="120" width="100" height="40" as="geometry" />
        </mxCell>
        <mxCell id="y-HTYOUWiwoaJM4Y_3pr-7" value="课程名" style="ellipse;whiteSpace=wrap;html=1;align=center;fillColor=none;" vertex="1" parent="1">
          <mxGeometry x="170" y="50" width="100" height="40" as="geometry" />
        </mxCell>
        <mxCell id="y-HTYOUWiwoaJM4Y_3pr-10" value="" style="edgeStyle=orthogonalEdgeStyle;rounded=0;orthogonalLoop=1;jettySize=auto;html=1;endArrow=none;endFill=0;" edge="1" parent="1" source="y-HTYOUWiwoaJM4Y_3pr-9" target="y-HTYOUWiwoaJM4Y_3pr-4">
          <mxGeometry relative="1" as="geometry" />
        </mxCell>
        <mxCell id="y-HTYOUWiwoaJM4Y_3pr-9" value="工作证编号" style="ellipse;whiteSpace=wrap;html=1;align=center;fontStyle=4;fillColor=none;" vertex="1" parent="1">
          <mxGeometry x="510" y="390" width="100" height="40" as="geometry" />
        </mxCell>
        <mxCell id="y-HTYOUWiwoaJM4Y_3pr-12" value="" style="edgeStyle=orthogonalEdgeStyle;rounded=0;orthogonalLoop=1;jettySize=auto;html=1;endArrow=none;endFill=0;" edge="1" parent="1" source="y-HTYOUWiwoaJM4Y_3pr-11" target="y-HTYOUWiwoaJM4Y_3pr-4">
          <mxGeometry relative="1" as="geometry" />
        </mxCell>
        <mxCell id="y-HTYOUWiwoaJM4Y_3pr-11" value="姓名" style="ellipse;whiteSpace=wrap;html=1;align=center;fillColor=none;" vertex="1" parent="1">
          <mxGeometry x="640" y="320" width="100" height="40" as="geometry" />
        </mxCell>
        <mxCell id="y-HTYOUWiwoaJM4Y_3pr-13" value="主讲&lt;span style=&quot;color: rgba(0 , 0 , 0 , 0) ; font-family: monospace ; font-size: 0px&quot;&gt;%3CmxGraphModel%3E%3Croot%3E%3CmxCell%20id%3D%220%22%2F%3E%3CmxCell%20id%3D%221%22%20parent%3D%220%22%2F%3E%3CmxCell%20id%3D%222%22%20value%3D%22%E8%AF%BE%E7%A8%8B%E5%90%8D%22%20style%3D%22ellipse%3BwhiteSpace%3Dwrap%3Bhtml%3D1%3Balign%3Dcenter%3BfillColor%3Dnone%3B%22%20vertex%3D%221%22%20parent%3D%221%22%3E%3CmxGeometry%20x%3D%22170%22%20y%3D%2250%22%20width%3D%22100%22%20height%3D%2240%22%20as%3D%22geometry%22%2F%3E%3C%2FmxCell%3E%3C%2Froot%3E%3C%2FmxGraphModel%3E&lt;/span&gt;&lt;span style=&quot;color: rgba(0 , 0 , 0 , 0) ; font-family: monospace ; font-size: 0px&quot;&gt;%3CmxGraphModel%3E%3Croot%3E%3CmxCell%20id%3D%220%22%2F%3E%3CmxCell%20id%3D%221%22%20parent%3D%220%22%2F%3E%3CmxCell%20id%3D%222%22%20value%3D%22%E8%AF%BE%E7%A8%8B%E5%90%8D%22%20style%3D%22ellipse%3BwhiteSpace%3Dwrap%3Bhtml%3D1%3Balign%3Dcenter%3BfillColor%3Dnone%3B%22%20vertex%3D%221%22%20parent%3D%221%22%3E%3CmxGeometry%20x%3D%22170%22%20y%3D%2250%22%20width%3D%22100%22%20height%3D%2240%22%20as%3D%22geometry%22%2F%3E%3C%2FmxCell%3E%3C%2Froot%3E%3C%2FmxGraphModel%3E&lt;/span&gt;" style="shape=rhombus;perimeter=rhombusPerimeter;whiteSpace=wrap;html=1;align=center;fillColor=none;" vertex="1" parent="1">
          <mxGeometry x="500" y="110" width="120" height="60" as="geometry" />
        </mxCell>
        <mxCell id="y-HTYOUWiwoaJM4Y_3pr-14" value="" style="endArrow=none;html=1;rounded=0;exitX=0.5;exitY=0;exitDx=0;exitDy=0;" edge="1" parent="1" source="y-HTYOUWiwoaJM4Y_3pr-4" target="y-HTYOUWiwoaJM4Y_3pr-13">
          <mxGeometry relative="1" as="geometry">
            <mxPoint x="340" y="250" as="sourcePoint" />
            <mxPoint x="500" y="250" as="targetPoint" />
          </mxGeometry>
        </mxCell>
        <mxCell id="y-HTYOUWiwoaJM4Y_3pr-15" value="" style="endArrow=none;html=1;rounded=0;exitX=0;exitY=0.5;exitDx=0;exitDy=0;" edge="1" parent="1" source="y-HTYOUWiwoaJM4Y_3pr-13" target="y-HTYOUWiwoaJM4Y_3pr-3">
          <mxGeometry relative="1" as="geometry">
            <mxPoint x="340" y="250" as="sourcePoint" />
            <mxPoint x="500" y="250" as="targetPoint" />
          </mxGeometry>
        </mxCell>
        <mxCell id="y-HTYOUWiwoaJM4Y_3pr-25" value="" style="edgeStyle=orthogonalEdgeStyle;rounded=0;orthogonalLoop=1;jettySize=auto;html=1;endArrow=none;endFill=0;" edge="1" parent="1" source="y-HTYOUWiwoaJM4Y_3pr-17" target="y-HTYOUWiwoaJM4Y_3pr-23">
          <mxGeometry relative="1" as="geometry" />
        </mxCell>
        <mxCell id="y-HTYOUWiwoaJM4Y_3pr-19" value="" style="endArrow=none;html=1;rounded=0;exitX=0;exitY=0.5;exitDx=0;exitDy=0;entryX=1;entryY=0.5;entryDx=0;entryDy=0;" edge="1" parent="1" source="y-HTYOUWiwoaJM4Y_3pr-4" target="y-HTYOUWiwoaJM4Y_3pr-17">
          <mxGeometry relative="1" as="geometry">
            <mxPoint x="510" y="150" as="sourcePoint" />
            <mxPoint x="280" y="150" as="targetPoint" />
            <Array as="points" />
          </mxGeometry>
        </mxCell>
        <mxCell id="y-HTYOUWiwoaJM4Y_3pr-20" value="" style="endArrow=none;html=1;rounded=0;exitX=0.5;exitY=0;exitDx=0;exitDy=0;" edge="1" parent="1" source="y-HTYOUWiwoaJM4Y_3pr-17" target="y-HTYOUWiwoaJM4Y_3pr-3">
          <mxGeometry relative="1" as="geometry">
            <mxPoint x="360" y="250" as="sourcePoint" />
            <mxPoint x="520" y="250" as="targetPoint" />
          </mxGeometry>
        </mxCell>
        <mxCell id="y-HTYOUWiwoaJM4Y_3pr-22" value="考试教室" style="ellipse;whiteSpace=wrap;html=1;align=center;fillColor=none;" vertex="1" parent="1">
          <mxGeometry x="60" y="390" width="100" height="40" as="geometry" />
        </mxCell>
        <mxCell id="y-HTYOUWiwoaJM4Y_3pr-23" value="开始时间" style="ellipse;whiteSpace=wrap;html=1;align=center;fillColor=none;" vertex="1" parent="1">
          <mxGeometry x="170" y="390" width="100" height="40" as="geometry" />
        </mxCell>
        <mxCell id="y-HTYOUWiwoaJM4Y_3pr-24" value="结束时间" style="ellipse;whiteSpace=wrap;html=1;align=center;fillColor=none;" vertex="1" parent="1">
          <mxGeometry x="280" y="390" width="100" height="40" as="geometry" />
        </mxCell>
        <mxCell id="y-HTYOUWiwoaJM4Y_3pr-28" value="" style="endArrow=none;html=1;rounded=0;exitX=1;exitY=0;exitDx=0;exitDy=0;" edge="1" parent="1" source="y-HTYOUWiwoaJM4Y_3pr-22" target="y-HTYOUWiwoaJM4Y_3pr-17">
          <mxGeometry relative="1" as="geometry">
            <mxPoint x="360" y="250" as="sourcePoint" />
            <mxPoint x="520" y="250" as="targetPoint" />
          </mxGeometry>
        </mxCell>
        <mxCell id="y-HTYOUWiwoaJM4Y_3pr-29" value="" style="endArrow=none;html=1;rounded=0;exitX=1;exitY=1;exitDx=0;exitDy=0;" edge="1" parent="1" source="y-HTYOUWiwoaJM4Y_3pr-17" target="y-HTYOUWiwoaJM4Y_3pr-24">
          <mxGeometry relative="1" as="geometry">
            <mxPoint x="360" y="250" as="sourcePoint" />
            <mxPoint x="520" y="250" as="targetPoint" />
          </mxGeometry>
        </mxCell>
        <mxCell id="y-HTYOUWiwoaJM4Y_3pr-30" value="(0, N)" style="text;html=1;resizable=0;autosize=1;align=center;verticalAlign=middle;points=[];fillColor=none;strokeColor=none;rounded=0;" vertex="1" parent="1">
          <mxGeometry x="370" y="320" width="50" height="20" as="geometry" />
        </mxCell>
        <mxCell id="y-HTYOUWiwoaJM4Y_3pr-31" value="(0, N)" style="text;html=1;resizable=0;autosize=1;align=center;verticalAlign=middle;points=[];fillColor=none;strokeColor=none;rounded=0;" vertex="1" parent="1">
          <mxGeometry x="510" y="230" width="50" height="20" as="geometry" />
        </mxCell>
        <mxCell id="y-HTYOUWiwoaJM4Y_3pr-32" value="(1, 1)" style="text;html=1;resizable=0;autosize=1;align=center;verticalAlign=middle;points=[];fillColor=none;strokeColor=none;rounded=0;" vertex="1" parent="1">
          <mxGeometry x="375" y="140" width="40" height="20" as="geometry" />
        </mxCell>
        <mxCell id="y-HTYOUWiwoaJM4Y_3pr-33" value="(1,1)" style="text;html=1;resizable=0;autosize=1;align=center;verticalAlign=middle;points=[];fillColor=none;strokeColor=none;rounded=0;" vertex="1" parent="1">
          <mxGeometry x="225" y="230" width="40" height="20" as="geometry" />
        </mxCell>
      </root>
    </mxGraphModel>
  </diagram>
</mxfile>
